<svg xmlns="http://www.w3.org/2000/svg" width="55.02" height="85" viewBox="0 0 55.02 85"><path d="M33.93,67.57,33,69.35C39.28,70.43,43.7,73,43.7,76c0,4-7.7,7.2-17.2,7.2S9.3,80,9.3,76c0-2.79,3.8-5.19,9.34-6.38-.32-.59-.57-1.2-.86-1.83C10.26,69.19,5,72.33,5,76c0,5,9.63,9,21.5,9S48,81,48,76C48,72.12,42.13,68.83,33.93,67.57Z"/><path d="M27.5,0C12.87,0,0,12.36,0,27c0,3.94-.19,8.6,4.64,16.14,3.47,5.4,9.92,8.76,11.89,12.08C22,64.43,28,78,28,78A249.83,249.83,0,0,1,39,55.13c2-3.45,8.51-7.16,12-12.8C55.47,35.06,55,30.8,55,27,55,12.36,42.14,0,27.5,0Zm0,42.4A15.9,15.9,0,1,1,43.4,26.5,15.9,15.9,0,0,1,27.5,42.4Z"/><circle cx="27.5" cy="26.5" r="10.6" fill="none" stroke="#000" stroke-miterlimit="10" stroke-width="3"/><path d="M44.62,17.52"/></svg>